<svg width="2295" height="393" viewBox="0 0 2295 393" fill="none" xmlns="http://www.w3.org/2000/svg">
<path d="M418.073 0H0.140503V114.235H418.073V0Z" fill="#50A060" fill-opacity="0.5"/>
<path d="M418.073 139.311H0.140539V253.546H418.073V139.311Z" fill="#50A060" fill-opacity="0.75"/>
<path d="M418.073 278.622H0.140539V392.857H418.073V278.622Z" fill="#50A060"/>
<g clip-path="url(#clip0_46_110)">
<g clip-path="url(#clip1_46_110)">
<path d="M530.697 300.27H495.112V106.653H588.699L584.776 133.271H530.697V192.394H577.771V219.012H530.697V300.27ZM638.574 304.473C628.487 304.473 620.492 301.335 614.589 295.059C608.724 288.819 605.791 280.469 605.791 270.009V92.6426L640.255 89V268.608C640.255 271.036 640.816 272.998 641.936 274.492C643.057 275.986 644.738 276.733 646.98 276.733C648.288 276.733 649.539 276.547 650.735 276.173C651.968 275.799 652.771 275.613 653.144 275.613L659.869 299.149C653.518 302.699 646.42 304.473 638.574 304.473ZM729.639 148.122C748.319 148.122 762.833 154.66 773.182 167.736C783.568 180.812 788.761 200.239 788.761 226.017C788.761 250.675 783.53 269.915 773.07 283.738C762.609 297.562 748.132 304.473 729.639 304.473C711.146 304.473 696.669 297.692 686.208 284.131C675.747 270.606 670.517 251.235 670.517 226.017C670.517 200.986 675.747 181.746 686.208 168.296C696.669 154.847 711.146 148.122 729.639 148.122ZM729.639 174.181C721.606 174.181 715.722 178.141 711.986 186.061C708.25 194.019 706.382 207.337 706.382 226.017C706.382 244.884 708.25 258.278 711.986 266.198C715.722 274.156 721.606 278.134 729.639 278.134C737.671 278.134 743.555 274.156 747.291 266.198C751.027 258.278 752.895 244.884 752.895 226.017C752.895 207.151 751.027 193.795 747.291 185.949C743.555 178.103 737.671 174.181 729.639 174.181ZM866.88 148.122C885.56 148.122 900.093 154.66 910.479 167.736C920.828 180.812 926.002 200.239 926.002 226.017C926.002 250.675 920.772 269.915 910.311 283.738C899.851 297.562 885.374 304.473 866.88 304.473C848.387 304.473 833.91 297.692 823.45 284.131C812.989 270.606 807.758 251.235 807.758 226.017C807.758 200.986 812.989 181.746 823.45 168.296C833.91 154.847 848.387 148.122 866.88 148.122ZM866.88 174.181C858.848 174.181 852.964 178.141 849.228 186.061C845.492 194.019 843.624 207.337 843.624 226.017C843.624 244.884 845.492 258.278 849.228 266.198C852.964 274.156 858.848 278.134 866.88 278.134C874.913 278.134 880.797 274.156 884.533 266.198C888.269 258.278 890.137 244.884 890.137 226.017C890.137 207.151 888.269 193.795 884.533 185.949C880.797 178.103 874.913 174.181 866.88 174.181ZM1024.07 89L1058.54 92.6426V300.27H1027.99L1026.31 283.178C1017.53 297.375 1006.23 304.473 992.41 304.473C977.092 304.473 965.38 297.599 957.273 283.851C949.128 270.139 945.056 250.955 945.056 226.298C945.056 210.606 947.167 196.821 951.389 184.94C955.573 173.097 961.401 164 968.873 157.649C976.345 151.298 984.938 148.122 994.651 148.122C1006.61 148.122 1016.41 153.072 1024.07 162.973V89ZM1002.22 278.415C1006.51 278.415 1010.38 276.92 1013.82 273.931C1017.29 270.943 1020.71 266.646 1024.07 261.042V189.031C1018.09 178.944 1011.28 173.9 1003.62 173.9C988.487 173.9 980.922 191.273 980.922 226.017C980.922 244.884 982.79 258.334 986.526 266.366C990.261 274.398 995.492 278.415 1002.22 278.415ZM1159.97 102.73C1170.62 102.73 1180.14 104.635 1188.55 108.446C1196.96 112.294 1204.89 117.861 1212.37 125.146L1194.43 143.639C1188.64 138.595 1183.23 134.99 1178.18 132.823C1173.14 130.694 1167.44 129.629 1161.09 129.629C1148.76 129.629 1139.08 135.139 1132.06 146.161C1125.07 157.182 1121.58 176.235 1121.58 203.321C1121.58 222.375 1122.83 237.263 1125.34 247.985C1127.88 258.745 1131.61 266.273 1136.54 270.569C1141.51 274.865 1148.01 277.014 1156.05 277.014C1164.45 277.014 1172.11 274.679 1179.02 270.009V217.611H1157.17L1153.52 190.993H1212.93V285.7C1204.89 291.491 1195.97 296.011 1186.14 299.262C1176.35 302.549 1166.41 304.193 1156.33 304.193C1132.23 304.193 1114.2 296.011 1102.25 279.648C1090.29 263.321 1084.32 237.879 1084.32 203.321C1084.32 180.905 1087.62 162.169 1094.23 147.113C1100.88 132.095 1109.91 120.943 1121.3 113.658C1132.7 106.372 1145.59 102.73 1159.97 102.73ZM1342.88 152.045V300.27H1312.96L1311.22 281.497C1306.55 289.156 1301.34 294.89 1295.59 298.701C1289.76 302.549 1283.01 304.473 1275.35 304.473C1264.56 304.473 1256.02 300.644 1249.74 292.985C1243.47 285.326 1240.33 275.333 1240.33 263.004V152.045H1274.79V261.042C1274.79 272.624 1278.72 278.415 1286.56 278.415C1291.08 278.415 1295.1 276.677 1298.61 273.203C1302.2 269.766 1305.47 264.872 1308.42 258.521V152.045H1342.88ZM1469.53 264.405C1469.53 269.262 1470.19 272.848 1471.49 275.164C1472.8 277.518 1474.95 279.442 1477.94 280.936L1470.93 303.913C1463.28 302.979 1457.17 300.924 1452.61 297.748C1448.01 294.573 1444.6 289.716 1442.35 283.178C1433.76 297.375 1421.71 304.473 1406.21 304.473C1393.88 304.473 1384.07 300.308 1376.79 291.976C1369.5 283.682 1365.86 272.624 1365.86 258.801C1365.86 242.736 1370.87 230.501 1380.88 222.095C1390.85 213.689 1405.37 209.486 1424.42 209.486H1435.91V199.118C1435.91 189.778 1434.28 183.184 1431.03 179.336C1427.75 175.526 1422.46 173.62 1415.17 173.62C1406.39 173.62 1395.47 176.049 1382.39 180.905L1374.55 158.489C1382.02 155.127 1389.77 152.549 1397.8 150.756C1405.83 149 1413.49 148.122 1420.78 148.122C1453.28 148.122 1469.53 164.56 1469.53 197.437V264.405ZM1415.45 279.535C1424.42 279.535 1431.24 273.371 1435.91 261.042V229.94H1427.78C1418.26 229.94 1411.31 232.088 1406.94 236.385C1402.53 240.681 1400.32 247.313 1400.32 256.279C1400.32 263.938 1401.63 269.729 1404.25 273.651C1406.86 277.574 1410.6 279.535 1415.45 279.535ZM1567.32 148.402C1571.62 148.402 1575.45 149.056 1578.81 150.364L1573.21 183.427C1569.47 182.493 1566.01 182.026 1562.84 182.026C1555.74 182.026 1550.14 185.108 1546.03 191.273C1541.92 197.437 1538.74 206.59 1536.5 218.732V300.27H1502.04V152.045H1532.02L1534.54 177.823C1541.45 158.209 1552.38 148.402 1567.32 148.402ZM1667.35 89L1701.82 92.6426V300.27H1671.28L1669.6 283.178C1660.82 297.375 1649.51 304.473 1635.69 304.473C1620.37 304.473 1608.64 297.599 1600.5 283.851C1592.39 270.139 1588.34 250.955 1588.34 226.298C1588.34 210.606 1590.43 196.821 1594.61 184.94C1598.84 173.097 1604.68 164 1612.15 157.649C1619.63 151.298 1628.22 148.122 1637.93 148.122C1649.89 148.122 1659.69 153.072 1667.35 162.973V89ZM1645.5 278.415C1649.79 278.415 1653.66 276.92 1657.1 273.931C1660.57 270.943 1663.99 266.646 1667.35 261.042V189.031C1661.38 178.944 1654.56 173.9 1646.9 173.9C1631.77 173.9 1624.2 191.273 1624.2 226.017C1624.2 244.884 1626.07 258.334 1629.81 266.366C1633.54 274.398 1638.77 278.415 1645.5 278.415ZM1912.75 300.27H1876.61L1867.08 254.878H1817.2L1807.96 300.27H1772.37L1821.13 106.653H1864.28L1912.75 300.27ZM1842.14 133.832L1822.81 227.979H1861.76L1842.14 133.832ZM1959.55 304.473C1949.46 304.473 1941.48 301.335 1935.62 295.059C1929.71 288.819 1926.76 280.469 1926.76 270.009V92.6426L1961.23 89V268.608C1961.23 271.036 1961.79 272.998 1962.91 274.492C1964.03 275.986 1965.71 276.733 1967.95 276.733C1969.26 276.733 1970.53 276.547 1971.76 276.173C1972.96 275.799 1973.74 275.613 1974.12 275.613L1980.84 299.149C1974.49 302.699 1967.39 304.473 1959.55 304.473ZM2103.57 222.655C2103.57 224.336 2103.29 229.1 2102.73 236.945H2026.23C2026.98 252.263 2029.63 262.948 2034.19 269C2038.79 275.09 2045.29 278.134 2053.69 278.134C2059.48 278.134 2064.71 277.144 2069.38 275.164C2074.05 273.222 2079.1 270.102 2084.51 265.806L2098.8 285.42C2085.73 298.122 2070.04 304.473 2051.73 304.473C2032.3 304.473 2017.4 297.748 2007.01 284.299C1996.66 270.849 1991.49 251.889 1991.49 227.418C1991.49 202.948 1996.44 183.614 2006.34 169.417C2016.24 155.22 2030.25 148.122 2048.37 148.122C2065.74 148.122 2079.28 154.417 2089 167.007C2098.71 179.635 2103.57 198.184 2103.57 222.655ZM2069.94 214.529V212.568C2069.94 198.558 2068.26 188.321 2064.9 181.858C2061.54 175.432 2056.12 172.219 2048.65 172.219C2041.74 172.219 2036.45 175.339 2032.79 181.578C2029.17 187.854 2026.98 198.838 2026.23 214.529H2069.94ZM2192.9 148.402C2197.19 148.402 2201.02 149.056 2204.38 150.364L2198.78 183.427C2195.04 182.493 2191.59 182.026 2188.41 182.026C2181.31 182.026 2175.71 185.108 2171.6 191.273C2167.49 197.437 2164.31 206.59 2162.07 218.732V300.27H2127.61V152.045H2157.59L2160.11 177.823C2167.02 158.209 2177.95 148.402 2192.9 148.402ZM2282.84 272.25L2294.89 293.545C2285.73 300.831 2274.99 304.473 2262.66 304.473C2249.78 304.473 2239.97 300.775 2233.24 293.377C2226.52 286.017 2223.16 275.986 2223.16 263.284V176.983H2205.78V152.045H2223.16V119.262L2257.62 115.059V152.045H2285.64L2282.28 176.983H2257.62V263.284C2257.62 272.25 2261.45 276.733 2269.11 276.733C2271.54 276.733 2273.69 276.397 2275.55 275.725C2277.42 275.09 2279.85 273.931 2282.84 272.25Z" fill="#50A060"/>
</g>
</g>
<defs>
<clipPath id="clip0_46_110">
<rect width="1800" height="215.473" fill="white" transform="translate(495 89)"/>
</clipPath>
<clipPath id="clip1_46_110">
<rect width="1800" height="215.473" fill="white" transform="translate(495 89)"/>
</clipPath>
</defs>
</svg>
